PathFileType	4	(X/Y/Z)	C:\Users\Basilio\Documents\Thesis Gigler\squatting_fais\c3dfiles\075\SLS_front_pre4\markers_experimental.trc
DataRate	CameraRate	NumFrames	NumMarkers	Units	OrigDataRate	OrigDataStartFrame	OrigNumFrames
200.000000	200.000000	4	61	mm	200.000000	333	1334
Frame#	Time	FHD			LBHD			RBHD			C7			T10			CLAV			LSHO			LUUPA			LMUPA			LDUPA			LLEP			LMEP			LRAD			LUL			LRFIN			RSHO			RUPA1			RMUPA			RDUPA			RLEP			RMEP			RRAD			RUL			RUFIN			USACR			LSACR			RSACR			LTHI1			LTHI2			LTHI3			LTHI4			LLFC			LMFC			LTIB1			LTIB2			LTIB3			LTIB4			LLMAL			LMMAL			LHEE			LMT1			LMT2			LMT5			RTHI			RTHI2			RTHI3			RTHI4			RLFC			RMFC			RTIB1			RTIB2			RTIB3			RTIB4			RLMAL			RMMAL			RHEE			RMT1			RMT2			RMT5			RASI			LASI			
		X1	Y1	Z1	X2	Y2	Z2	X3	Y3	Z3	X4	Y4	Z4	X5	Y5	Z5	X6	Y6	Z6	X7	Y7	Z7	X8	Y8	Z8	X9	Y9	Z9	X10	Y10	Z10	X11	Y11	Z11	X12	Y12	Z12	X13	Y13	Z13	X14	Y14	Z14	X15	Y15	Z15	X16	Y16	Z16	X17	Y17	Z17	X18	Y18	Z18	X19	Y19	Z19	X20	Y20	Z20	X21	Y21	Z21	X22	Y22	Z22	X23	Y23	Z23	X24	Y24	Z24	X25	Y25	Z25	X26	Y26	Z26	X27	Y27	Z27	X28	Y28	Z28	X29	Y29	Z29	X30	Y30	Z30	X31	Y31	Z31	X32	Y32	Z32	X33	Y33	Z33	X34	Y34	Z34	X35	Y35	Z35	X36	Y36	Z36	X37	Y37	Z37	X38	Y38	Z38	X39	Y39	Z39	X40	Y40	Z40	X41	Y41	Z41	X42	Y42	Z42	X43	Y43	Z43	X44	Y44	Z44	X45	Y45	Z45	X46	Y46	Z46	X47	Y47	Z47	X48	Y48	Z48	X49	Y49	Z49	X50	Y50	Z50	X51	Y51	Z51	X52	Y52	Z52	X53	Y53	Z53	X54	Y54	Z54	X55	Y55	Z55	X56	Y56	Z56	X57	Y57	Z57	X58	Y58	Z58	X59	Y59	Z59	X60	Y60	Z60	X61	Y61	Z61	

334	1.665	-323.3090209960938	1716.641479492188	-785.1024169921877	-463.2783508300782	1588.927490234375	-849.6363525390627	-425.2568359375001	1631.370239257813	-697.2412109375001	-487.8052062988282	1470.6708984375	-791.0957641601565	-484.0562133789064	1146.570556640625	-792.3485107421877	-337.7687988281251	1424.173217773438	-784.660339355469	-372.0028381347657	1462.981567382813	-927.345642089844	-227.2671661376954	1354.346801757813	-1019.07861328125	-195.8749389648438	1376.299072265625	-988.2327270507815	-160.8512725830078	1338.556640625	-1019.402038574219	-79.58904266357423	1317.788208007813	-1006.604309082031	-109.2613296508789	1249.662353515625	-960.8428955078127	nan	nan	nan	145.1810302734375	1309.670166015625	-878.193054199219	147.4396057128907	1343.346313476563	-775.567321777344	-381.2605285644532	1452.169555664063	-640.4488525390626	-244.9376373291016	1344.839233398438	-531.5143432617189	-206.9635772705079	1363.641235351563	-556.4531250000001	-178.3724060058594	1324.34912109375	-519.8197021484376	-107.9723663330078	1309.619995117188	-521.7952880859376	-112.3131561279297	1238.502075195313	-554.2473144531251	92.73587799072267	1332.560546875	-715.4498291015626	120.9550476074219	1323.723999023438	-644.0008544921876	169.8283233642578	1359.06640625	-744.5322875976564	-469.9645080566407	1042.93115234375	-801.0459594726565	-474.570526123047	1012.245788574219	-830.0030517578127	-471.2276306152345	1010.359741210938	-772.7738037109377	-271.5830078125001	782.144470214844	-1024.778198242188	-207.9578247070313	726.7958984375001	-1031.935180664063	-170.299545288086	747.9400634765626	-1008.157043457031	-208.5157165527344	666.6666259765626	-1035.070678710938	-172.9133911132813	565.6572875976564	-1039.079345703125	-130.0497741699219	548.8150634765626	-916.535095214844	-95.35820770263673	454.2483825683595	-1018.918640136719	-150.8010559082032	410.5858459472657	-1070.167358398438	-109.1736831665039	408.7239379882814	-1052.43798828125	-100.4481658935547	326.6290588378907	-1030.24169921875	-155.6199188232422	176.031982421875	-1060.33447265625	-126.7113189697266	189.5047607421875	-978.6308593750002	-205.692123413086	135.8755035400391	-1017.734069824219	2.399452924728394	130.6072235107422	-992.0588378906252	5.723024368286134	132.7089233398438	-1040.604736328125	-31.67298889160157	108.7484588623047	-1089.748657226563	-350.5549011230469	775.728942871094	-627.6090698242189	-307.7910766601563	726.6306762695314	-631.7343750000001	-276.7259826660157	736.0828247070314	-640.1837158203126	-327.8750000000001	644.1915893554689	-647.5886840820314	-330.5101928710938	491.8350830078126	-687.6882934570314	-286.7100524902344	495.6882629394532	-809.0131835937502	-284.6834716796876	348.9166259765626	-764.3797607421876	-343.4548339843751	270.1433410644532	-718.5184936523439	-305.9454040527344	265.9019470214844	-748.6757812500001	-317.4342346191407	226.4210968017579	-789.927917480469	-396.733612060547	110.2331008911133	-771.4376220703127	-361.3668518066407	138.8876190185547	-847.7098388671877	-445.9615173339845	92.96202850341798	-834.5935058593752	-241.6631774902344	57.18530273437501	-823.0361328125002	-246.9893188476563	55.14846801757814	-780.1281738281252	-290.0887451171876	33.48554229736329	-733.8161621093751	-303.0424499511719	988.639831542969	-678.0593261718751	-312.2806396484376	1000.423950195313	-933.0376586914065	
335	1.67	-323.1683959960938	1716.580200195313	-784.6675415039065	-463.3226318359376	1588.921752929688	-849.2753906250002	-424.9111633300782	1631.421997070313	-697.2802124023439	-487.7352905273439	1470.7216796875	-790.5971679687502	-484.2610473632814	1146.723266601563	-791.8350830078127	-338.3798522949219	1424.289428710938	-784.7056884765627	-372.0573120117188	1463.01513671875	-926.893493652344	-227.4282836914063	1354.477294921875	-1018.8681640625	-195.6851806640626	1376.334838867188	-988.2356567382815	-161.0041961669922	1338.752075195313	-1019.123229980469	-79.81273651123048	1318.045288085938	-1006.665283203125	-109.2388763427735	1249.964599609375	-960.8355102539065	nan	nan	nan	145.1180114746094	1310.27880859375	-878.495544433594	147.8655395507813	1343.921020507813	-776.1909790039065	-381.2296752929688	1452.174072265625	-639.9177856445314	-244.6807403564454	1344.897827148438	-531.3978271484376	-206.7427062988282	1363.804077148438	-556.3579101562501	-178.0267639160157	1324.556030273438	-519.7280273437501	-107.5836715698242	1309.883544921875	-521.8728027343751	-111.8703079223633	1238.828857421875	-554.4002075195314	92.95237731933595	1332.727294921875	-715.6234130859376	121.2135009765625	1324.209106445313	-644.1560668945314	169.9042663574219	1359.392822265625	-744.8229370117189	-470.0502014160157	1043.000122070313	-800.7939453125002	-474.7437744140626	1012.266967773438	-829.7821044921877	-471.3189392089845	1010.392578125	-772.4664306640627	-271.2603149414063	782.598571777344	-1024.638793945313	-207.6935577392579	727.6616821289064	-1031.75048828125	-169.8647766113282	748.6418457031251	-1007.53173828125	-208.0061645507813	667.3708496093751	-1034.854248046875	-172.0742340087891	566.5324707031251	-1038.734619140625	-129.042236328125	549.6931762695314	-916.1671142578127	-93.23093414306642	455.6738281250001	-1018.484008789063	-148.2706604003907	411.4751281738282	-1069.922973632813	-106.3108749389649	410.0542907714845	-1052.030029296875	-96.87280273437503	327.9942016601563	-1029.936157226563	-150.3258056640625	177.0035552978516	-1060.300659179688	-121.7482070922852	190.5683746337891	-978.4642333984377	-200.2878570556641	136.2919311523438	-1017.689025878906	7.871212959289553	132.5147857666016	-991.794860839844	11.17133140563965	134.6934814453125	-1040.348266601563	-25.66586112976075	110.4614791870117	-1089.542602539063	-350.5973510742188	775.6347656250002	-627.5658569335939	-307.7409057617188	726.9971923828126	-631.7655029296876	-276.6916503906251	736.0627441406251	-640.1497192382814	-327.8656311035157	644.1210937500001	-647.5310058593751	-330.5169067382813	491.7416992187501	-687.6467895507814	-286.6601867675782	495.7158508300782	-808.9815063476565	-284.5505676269532	348.9445800781251	-764.2587280273439	-343.4346618652344	270.1319580078126	-718.4851684570314	-305.8775634765626	265.8778381347657	-748.6757812500001	-317.4133911132813	226.4125366210938	-789.9802856445315	-396.7179565429689	110.2520599365235	-771.4158325195315	-361.3114624023438	138.9127502441407	-847.7335205078127	-445.9313354492189	92.93624877929689	-834.5930175781252	-241.6591949462891	57.15550613403322	-823.0374145507815	-246.8567810058594	55.12363815307619	-780.097595214844	-290.0465087890626	33.50465393066407	-733.8193359375001	-303.1570129394532	988.591735839844	-677.9089965820314	-312.4846801757813	1000.658386230469	-932.7683105468752	
336	1.675	-323.1656494140626	1716.678100585938	-784.3389282226565	-463.2093811035157	1589.0087890625	-848.7036132812502	-424.7984008789064	1631.379760742188	-696.8772583007814	-487.6845092773439	1470.771728515625	-790.2416992187502	-484.6328735351564	1146.818481445313	-791.2915649414065	-338.3740539550782	1424.211181640625	-784.3308105468752	-372.1468200683594	1463.057373046875	-926.4925537109377	-227.8038482666016	1354.88525390625	-1018.697998046875	-195.8380126953126	1376.528686523438	-987.9898071289065	-160.9752655029297	1339.026489257813	-1018.977111816406	-79.84178161621095	1318.313598632813	-1006.592041015625	-109.2974853515625	1250.229736328125	-960.7015380859377	nan	nan	nan	145.1845397949219	1310.773803710938	-878.718200683594	147.6439361572266	1343.880004882813	-775.7227172851565	-381.1462707519532	1452.177368164063	-639.5332641601564	-244.4607391357422	1344.999877929688	-531.2749633789064	-206.507797241211	1363.913940429688	-556.2742919921876	-177.7078094482422	1324.748291015625	-519.6345825195314	-107.2461395263672	1310.158203125	-521.9360351562501	-111.5225296020508	1239.0361328125	-554.4498291015626	93.16294097900392	1332.744140625	-715.6788940429689	121.4156494140625	1324.628662109375	-644.3875122070314	170.0421600341797	1359.78125	-745.0941772460939	-470.2228393554689	1043.009033203125	-800.4862060546877	-474.8481445312501	1012.305114746094	-829.5802001953127	-471.4718017578126	1010.335632324219	-772.2684326171877	-270.8706970214844	783.048034667969	-1024.45263671875	-207.3557586669922	728.3818969726564	-1031.543090820313	-169.3970184326172	749.4326171875001	-1007.089904785156	-207.3061828613282	668.0427856445314	-1034.498046875	-171.0840148925782	567.1565551757814	-1038.380737304688	-127.9510879516602	550.6506347656251	-915.7271728515627	-91.3871536254883	457.1744689941407	-1018.338684082031	-145.6274108886719	412.2221069335939	-1069.62451171875	-103.2677307128907	411.304412841797	-1051.347045898438	-93.34668731689455	329.3725891113282	-1029.5478515625	-144.8527984619141	177.4960021972657	-1060.158081054688	-116.8682403564453	191.5486450195313	-978.3066406250002	-194.7630920410157	136.9824676513672	-1017.716857910156	13.24775218963623	134.5090789794922	-991.642761230469	16.86239051818848	136.5829467773438	-1039.92724609375	-20.1490535736084	112.1733779907227	-1089.324951171875	-350.6555480957032	775.5564575195315	-627.4657592773439	-307.8314208984376	726.6043701171876	-631.7023925781251	-276.7877807617188	735.8262939453126	-639.7215576171876	-327.8429870605469	644.0527343750001	-647.4475097656251	-330.4315490722657	491.7014770507814	-687.5902099609376	-286.5978393554688	495.6531677246095	-808.8823852539065	-284.5396728515626	348.9117126464844	-764.3391113281251	-343.3938293457032	270.1071166992188	-718.5536499023439	-305.6828918457032	265.8515930175782	-748.5383911132814	-317.3216552734376	226.3889617919922	-789.9832153320315	-396.7093811035157	110.2367401123047	-771.4433593750002	-361.3227233886719	138.902099609375	-847.812927246094	-445.9005737304689	92.95762634277345	-834.6441040039065	-241.6378326416016	57.1692581176758	-823.0639648437502	-246.7503967285157	55.10707855224611	-780.092468261719	-290.0199584960938	33.51491165161134	-733.8544311523439	-303.2576293945313	988.5541992187502	-677.7227172851564	-312.6692199707032	1000.850402832031	-932.4663696289065	
337	1.68	-323.1908264160157	1716.733642578125	-783.997253417969	-462.9354553222657	1589.103149414063	-848.2319335937502	-424.8028259277345	1631.210205078125	-696.3729858398439	-487.7222290039064	1470.787353515625	-789.711853027344	-484.7223205566407	1146.88623046875	-790.9520263671877	-338.3545227050782	1424.154174804688	-784.0108642578127	-372.1922302246094	1463.097900390625	-926.0368652343752	-227.9916687011719	1355.149536132813	-1018.466003417969	-195.9937438964844	1376.726196289063	-987.8488769531252	-161.1073455810547	1339.307006835938	-1018.845153808594	-79.90995025634767	1318.773315429688	-1006.539855957031	-109.2540512084961	1250.43603515625	-960.5183715820315	nan	nan	nan	145.5963439941407	1311.592163085938	-879.3023071289065	147.672348022461	1344.291015625	-775.794128417969	-380.9352722167969	1452.144897460938	-639.1965332031251	-244.1935577392579	1345.108642578125	-531.1675415039064	-206.2837371826172	1364.066772460938	-556.3076171875001	-177.3474273681641	1324.944702148438	-519.6024780273439	-106.9707260131836	1310.351196289063	-522.0401000976564	-111.2095947265625	1239.24658203125	-554.5953369140626	93.34287261962892	1332.947998046875	-715.7451782226564	121.6544036865235	1324.98193359375	-644.5830078125001	170.0770416259766	1360.118041992188	-745.3432617187501	-470.3624267578126	1043.003173828125	-800.2368774414065	-475.0475463867189	1012.393310546875	-829.3184204101565	-471.5584106445314	1010.38232421875	-772.0030517578127	-270.4373474121094	783.4846801757815	-1024.16552734375	-207.0127563476563	729.0521850585939	-1031.245239257813	-169.3024139404297	750.1707763671876	-1006.692321777344	-207.244125366211	668.8327636718751	-1034.107421875	-169.6597900390625	567.8551025390626	-1037.847412109375	-127.0503158569336	551.5139770507814	-915.260681152344	-89.09072113037111	458.4939575195314	-1017.759765625	-142.8652496337891	413.2554016113282	-1069.335083007813	-101.2409362792969	412.6347656250001	-1051.394653320313	-89.54688262939455	330.7005920410157	-1029.05126953125	-139.9663238525391	178.5839538574219	-1060.066528320313	-112.0215911865235	192.6929626464844	-978.2856445312502	-190.0401763916016	137.7489166259766	-1017.649963378906	18.58578109741211	136.531005859375	-991.3650512695315	22.07668113708496	138.6778869628907	-1039.654418945313	-14.50209712982178	114.0545272827149	-1089.196899414063	-350.5925292968751	775.4868774414065	-627.4122924804689	-307.7590637207032	726.8843994140626	-631.6844482421876	-276.7248229980469	735.9598388671876	-640.0761108398439	-327.7693481445313	644.0112915039064	-647.4297485351564	-330.3705749511719	491.6339416503907	-687.5471801757814	-286.4525756835938	495.6887512207032	-808.8264770507815	-284.2655944824219	348.8399353027344	-764.1452636718751	-343.3141784667969	270.0852966308594	-718.6152954101564	-305.0444641113282	265.7034912109376	-748.0777587890626	-317.2796936035157	226.4241333007813	-790.0422363281252	-396.6535034179689	110.2894134521485	-771.4710693359377	-361.2336120605469	138.848388671875	-847.8076171875002	-445.8897094726564	92.99028778076173	-834.6868896484377	-241.676254272461	57.26856994628908	-823.0410766601565	-247.2882385253907	54.64165115356447	-780.6762695312502	-290.0317687988282	33.53263092041016	-733.8200073242189	-303.3671569824219	988.4968261718752	-677.5961914062501	-312.9223632812501	1000.939453125	-932.219421386719	
